HIERARCHY
ROOT Hips
{
	OFFSET 0.000000 100.481300 0.000000
	CHANNELS 6 Xposition Yposition Zposition Xrotation Yrotation Zrotation 
	JOINT Spine
	{
		OFFSET -0.279200 12.230698 -2.892100
		CHANNELS 3 Xrotation Yrotation Zrotation
		JOINT Spine1
		{
			OFFSET -0.232667 10.192268 -1.242267
			CHANNELS 3 Xrotation Yrotation Zrotation
			JOINT Spine1_split
			{
				OFFSET -0.232667 10.192268 -1.242267
				CHANNELS 3 Xrotation Yrotation Zrotation
				JOINT Spine2
				{
					OFFSET -0.232667 10.192268 -1.242267
					CHANNELS 3 Xrotation Yrotation Zrotation
					JOINT Neck
					{
						OFFSET -0.418800 17.814194 8.416900
						CHANNELS 3 Xrotation Yrotation Zrotation
						JOINT Head
						{
							OFFSET 0.000000 7.031097 3.806800
							CHANNELS 3 Xrotation Yrotation Zrotation
							JOINT HeadTop_End
							{
								OFFSET 0.000000 24.646606 12.978600
								CHANNELS 3 Xrotation Yrotation Zrotation
								End Site
								{
									OFFSET 0.000000 0.000000 0.000000
								}
							}
						}
					}
					JOINT LeftShoulder
					{
						OFFSET 8.476499 7.247704 -3.868750
						CHANNELS 3 Xrotation Yrotation Zrotation
						JOINT LeftShoulder_split
						{
							OFFSET 8.476499 7.247704 -3.868750
							CHANNELS 3 Xrotation Yrotation Zrotation
							JOINT LeftArm
							{
								OFFSET 9.308998 -2.777710 0.208600
								CHANNELS 3 Xrotation Yrotation Zrotation
								JOINT LeftForeArm
								{
									OFFSET 29.972298 0.000000 0.000000
									CHANNELS 3 Xrotation Yrotation Zrotation
									JOINT LeftHand
									{
										OFFSET 26.026505 0.000000 0.000000
										CHANNELS 3 Xrotation Yrotation Zrotation
										JOINT LeftHandThumb1
										{
											OFFSET 12.240501 -7.147949 9.207150
											CHANNELS 3 Xrotation Yrotation Zrotation
											JOINT LeftHandThumb2
											{
												OFFSET 4.138618 -2.389435 2.389433
												CHANNELS 3 Xrotation Yrotation Zrotation
												JOINT LeftHandThumb3
												{
													OFFSET 2.726913 -1.574387 1.574386
													CHANNELS 3 Xrotation Yrotation Zrotation
													JOINT LeftHandThumb4
													{
														OFFSET 3.941010 -2.275345 2.275342
														CHANNELS 3 Xrotation Yrotation Zrotation
														End Site
														{
															OFFSET 0.000000 0.000000 0.000000
														}
													}
												}
											}
										}
										JOINT LeftHandIndex1
										{
											OFFSET 24.424698 -1.985611 5.953459
											CHANNELS 3 Xrotation Yrotation Zrotation
											JOINT LeftHandIndex2
											{
												OFFSET 6.426697 0.000000 0.000000
												CHANNELS 3 Xrotation Yrotation Zrotation
												JOINT LeftHandIndex3
												{
													OFFSET 5.337898 0.000000 0.000000
													CHANNELS 3 Xrotation Yrotation Zrotation
													JOINT LeftHandIndex4
													{
														OFFSET 4.409401 0.000000 0.000000
														CHANNELS 3 Xrotation Yrotation Zrotation
														End Site
														{
															OFFSET 0.000000 0.000000 0.000000
														}
													}
												}
											}
										}
										JOINT LeftHandMiddle1
										{
											OFFSET 23.810104 0.000000 0.000000
											CHANNELS 3 Xrotation Yrotation Zrotation
											JOINT LeftHandMiddle2
											{
												OFFSET 7.176498 0.000000 0.000000
												CHANNELS 3 Xrotation Yrotation Zrotation
												JOINT LeftHandMiddle3
												{
													OFFSET 6.774902 0.000000 0.000000
													CHANNELS 3 Xrotation Yrotation Zrotation
													JOINT LeftHandMiddle4
													{
														OFFSET 5.403328 0.000000 0.000000
														CHANNELS 3 Xrotation Yrotation Zrotation
														End Site
														{
															OFFSET 0.000000 0.000000 0.000000
														}
													}
												}
											}
										}
										JOINT LeftHandRing1
										{
											OFFSET 22.908401 -0.839279 -6.020567
											CHANNELS 3 Xrotation Yrotation Zrotation
											JOINT LeftHandRing2
											{
												OFFSET 6.337502 0.000000 0.000000
												CHANNELS 3 Xrotation Yrotation Zrotation
												JOINT LeftHandRing3
												{
													OFFSET 5.779297 0.000000 0.000000
													CHANNELS 3 Xrotation Yrotation Zrotation
													JOINT LeftHandRing4
													{
														OFFSET 4.965698 0.000000 0.000000
														CHANNELS 3 Xrotation Yrotation Zrotation
														End Site
														{
															OFFSET 0.000000 0.000000 0.000000
														}
													}
												}
											}
										}
										JOINT LeftHandPinky1
										{
											OFFSET 20.037003 -1.530319 -10.950146
											CHANNELS 3 Xrotation Yrotation Zrotation
											JOINT LeftHandPinky2
											{
												OFFSET 5.254700 0.000000 0.000000
												CHANNELS 3 Xrotation Yrotation Zrotation
												JOINT LeftHandPinky3
												{
													OFFSET 4.810204 0.000000 0.000000
													CHANNELS 3 Xrotation Yrotation Zrotation
													JOINT LeftHandPinky4
													{
														OFFSET 3.647202 0.000000 0.000000
														CHANNELS 3 Xrotation Yrotation Zrotation
														End Site
														{
															OFFSET 0.000000 0.000000 0.000000
														}
													}
												}
											}
										}
									}
								}
							}
						}
					}
					JOINT RightShoulder
					{
						OFFSET -7.570500 7.247704 -3.868750
						CHANNELS 3 Xrotation Yrotation Zrotation
						JOINT RightShoulder_split
						{
							OFFSET -7.570500 7.247704 -3.868750
							CHANNELS 3 Xrotation Yrotation Zrotation
							JOINT RightArm
							{
								OFFSET -9.308998 -2.777710 0.208500
								CHANNELS 3 Xrotation Yrotation Zrotation
								JOINT RightForeArm
								{
									OFFSET -29.972300 0.000000 0.000000
									CHANNELS 3 Xrotation Yrotation Zrotation
									JOINT RightHand
									{
										OFFSET -26.026505 0.000000 0.000000
										CHANNELS 3 Xrotation Yrotation Zrotation
										JOINT RightHandThumb1
										{
											OFFSET -12.240601 -7.148026 9.207092
											CHANNELS 3 Xrotation Yrotation Zrotation
											JOINT RightHandThumb2
											{
												OFFSET -4.138618 -2.389435 2.389433
												CHANNELS 3 Xrotation Yrotation Zrotation
												JOINT RightHandThumb3
												{
													OFFSET -2.726974 -1.574417 1.574421
													CHANNELS 3 Xrotation Yrotation Zrotation
													JOINT RightHandThumb4
													{
														OFFSET -3.941010 -2.275345 2.275343
														CHANNELS 3 Xrotation Yrotation Zrotation
														End Site
														{
															OFFSET 0.000000 0.000000 0.000000
														}
													}
												}
											}
										}
										JOINT RightHandIndex1
										{
											OFFSET -24.424698 -1.985657 5.953444
											CHANNELS 3 Xrotation Yrotation Zrotation
											JOINT RightHandIndex2
											{
												OFFSET -6.426697 0.000000 0.000000
												CHANNELS 3 Xrotation Yrotation Zrotation
												JOINT RightHandIndex3
												{
													OFFSET -5.337898 0.000000 0.000000
													CHANNELS 3 Xrotation Yrotation Zrotation
													JOINT RightHandIndex4
													{
														OFFSET -4.409401 0.000000 0.000000
														CHANNELS 3 Xrotation Yrotation Zrotation
														End Site
														{
															OFFSET 0.000000 0.000000 0.000000
														}
													}
												}
											}
										}
										JOINT RightHandMiddle1
										{
											OFFSET -23.810097 0.000000 0.000000
											CHANNELS 3 Xrotation Yrotation Zrotation
											JOINT RightHandMiddle2
											{
												OFFSET -7.176498 0.000000 0.000000
												CHANNELS 3 Xrotation Yrotation Zrotation
												JOINT RightHandMiddle3
												{
													OFFSET -6.774902 0.000000 0.000000
													CHANNELS 3 Xrotation Yrotation Zrotation
													JOINT RightHandMiddle4
													{
														OFFSET -5.403328 0.000000 0.000000
														CHANNELS 3 Xrotation Yrotation Zrotation
														End Site
														{
															OFFSET 0.000000 0.000000 0.000000
														}
													}
												}
											}
										}
										JOINT RightHandRing1
										{
											OFFSET -22.908302 -0.839325 -6.020576
											CHANNELS 3 Xrotation Yrotation Zrotation
											JOINT RightHandRing2
											{
												OFFSET -6.337502 0.000000 0.000000
												CHANNELS 3 Xrotation Yrotation Zrotation
												JOINT RightHandRing3
												{
													OFFSET -5.779297 0.000000 0.000000
													CHANNELS 3 Xrotation Yrotation Zrotation
													JOINT RightHandRing4
													{
														OFFSET -4.965698 0.000000 0.000000
														CHANNELS 3 Xrotation Yrotation Zrotation
														End Site
														{
															OFFSET 0.000000 0.000000 0.000000
														}
													}
												}
											}
										}
										JOINT RightHandPinky1
										{
											OFFSET -20.037003 -1.530334 -10.950259
											CHANNELS 3 Xrotation Yrotation Zrotation
											JOINT RightHandPinky2
											{
												OFFSET -5.254700 0.000000 0.000000
												CHANNELS 3 Xrotation Yrotation Zrotation
												JOINT RightHandPinky3
												{
													OFFSET -4.810204 0.000000 0.000000
													CHANNELS 3 Xrotation Yrotation Zrotation
													JOINT RightHandPinky4
													{
														OFFSET -3.647202 0.000000 0.000000
														CHANNELS 3 Xrotation Yrotation Zrotation
														End Site
														{
															OFFSET 0.000000 0.000000 0.000000
														}
													}
												}
											}
										}
									}
								}
							}
						}
					}
				}
			}
		}
	}
	JOINT LeftUpLeg
	{
		OFFSET 15.427100 -6.655098 0.678600
		CHANNELS 3 Xrotation Yrotation Zrotation
		JOINT LeftLeg
		{
			OFFSET 4.081073 -39.591068 13.024000
			CHANNELS 3 Xrotation Yrotation Zrotation
			JOINT LeftFoot
			{
				OFFSET -4.081074 -37.707932 -15.979700
				CHANNELS 3 Xrotation Yrotation Zrotation
				JOINT LeftToeBase
				{
					OFFSET 5.346399 -15.068900 20.645000
					CHANNELS 3 Xrotation Yrotation Zrotation
					JOINT LeftToe_End
					{
						OFFSET 2.754700 0.931300 11.300900
						CHANNELS 3 Xrotation Yrotation Zrotation
						End Site
						{
							OFFSET 0.000000 0.000000 0.000000
						}
					}
				}
			}
		}
	}
	JOINT RightUpLeg
	{
		OFFSET -15.569500 -6.655098 0.678600
		CHANNELS 3 Xrotation Yrotation Zrotation
		JOINT RightLeg
		{
			OFFSET -4.081825 -39.591045 13.023800
			CHANNELS 3 Xrotation Yrotation Zrotation
			JOINT RightFoot
			{
				OFFSET 4.081824 -37.707954 -15.979600
				CHANNELS 3 Xrotation Yrotation Zrotation
				JOINT RightToeBase
				{
					OFFSET -5.346400 -15.068900 20.645000
					CHANNELS 3 Xrotation Yrotation Zrotation
					JOINT RightToe_End
					{
						OFFSET -2.754700 0.931300 11.300900
						CHANNELS 3 Xrotation Yrotation Zrotation
						End Site
						{
							OFFSET 0.000000 0.000000 0.000000
						}
					}
				}
			}
		}
	}
}
MOTION
Frames: 4
Frame Time: 0.016667
2.099451 72.805344 -1.895813 -5.064320 -42.721197 -0.023918 9.423334 7.440747 -1.392635 2.187715 0.989901 -0.914786 0.000000 0.000000 0.000000 2.202830 0.982771 -0.893560 0.084652 13.220555 4.538679 8.920923 20.138131 -4.130228 0.000000 0.000000 0.000000 1.117176 3.546351 -8.633308 0.000000 0.000000 0.000000 -53.487027 4.935512 -51.502980 0.000046 -106.358073 0.000056 1.988603 -7.706148 -15.869224 -6.141223 -11.690794 -6.761692 9.914119 42.595505 3.409851 -0.422797 8.108096 27.509121 0.000001 -0.000002 0.000000 0.255320 3.378222 -45.814351 5.654086 5.847761 -88.067448 2.162143 4.544812 -50.866365 0.000001 -0.000002 0.000002 -0.461471 3.841598 -39.722693 6.450758 5.820348 -95.892871 2.182889 4.561564 -51.127743 0.000001 0.000001 -0.000001 0.469722 4.966833 -39.799451 8.181047 5.368620 -113.503018 3.200489 5.218120 -63.022989 -0.000001 0.000002 0.000001 -3.762427 9.063687 -45.253825 5.342528 5.829003 -85.005304 8.716830 5.103329 -119.369167 -0.000002 0.000000 -0.000001 3.036126 13.027195 -5.371406 0.000000 0.000000 0.000000 -48.713722 27.172839 83.457071 0.000077 105.988287 -0.000082 -8.345391 17.548091 8.775689 -7.341104 13.749653 7.412324 9.855803 -44.489093 -3.903240 -0.115793 -14.513068 -28.973854 -0.000002 0.000001 -0.000001 -0.124372 -2.384788 45.108881 4.500588 -4.654542 88.071171 1.723225 -3.618380 50.920105 0.000001 -0.000001 0.000003 -0.761623 -2.932905 39.031055 5.133883 -4.632764 95.881642 1.739751 -3.631707 51.181387 -0.000002 0.000001 0.000000 0.154759 -4.068817 39.122675 6.509733 -4.273601 113.462877 2.549587 -4.153926 63.067337 -0.000001 -0.000001 -0.000000 -4.198881 -8.025518 44.637779 4.252917 -4.639638 85.014818 6.935962 -4.062620 119.322285 -0.000002 -0.000000 0.000000 -34.311609 5.072922 20.287902 56.805741 -7.625169 3.679028 -20.105200 -7.073252 -17.241795 -1.594204 0.000015 -0.000002 -0.000000 0.000002 -0.000000 -19.324437 -9.186521 -34.394189 57.561180 -3.564042 -5.081606 -26.919043 -10.201039 25.656916 -1.421719 -0.000013 0.000000 0.000000 0.000001 -0.000000 
2.101902 72.830948 -1.869049 -4.994075 -42.709169 -0.072420 9.405514 7.485581 -1.407623 2.175732 1.007923 -0.914785 0.000000 0.000000 0.000000 2.190586 1.000767 -0.893560 0.049148 13.241675 4.506402 8.795706 20.178667 -4.038382 0.000001 0.000000 0.000001 1.060110 3.401054 -8.204985 0.000000 0.000000 0.000000 -53.252629 4.575412 -50.958918 -0.000214 -106.452289 -0.000212 2.080129 -7.637599 -15.690649 -6.141222 -11.690794 -6.761694 9.914113 42.595512 3.409853 -0.422800 8.108095 27.509126 -0.000002 -0.000002 0.000000 0.255320 3.378222 -45.814354 5.654091 5.847759 -88.067455 2.162142 4.544813 -50.866362 0.000000 -0.000001 -0.000000 -0.461471 3.841600 -39.722693 6.450755 5.820348 -95.892871 2.182890 4.561564 -51.127740 -0.000000 0.000000 -0.000003 0.469723 4.966834 -39.799447 8.181049 5.368618 -113.503018 3.200488 5.218116 -63.022989 -0.000000 -0.000001 0.000002 -3.762425 9.063685 -45.253825 5.342530 5.829002 -85.005304 8.716833 5.103332 -119.369167 -0.000001 0.000000 0.000000 2.992698 12.851430 -5.316453 0.000000 0.000000 0.000000 -49.165648 27.692727 83.232555 0.000079 105.878041 -0.000093 -8.322243 17.530732 8.373445 -7.341104 13.749654 7.412327 9.855816 -44.489089 -3.903241 -0.115792 -14.513073 -28.973857 0.000000 0.000002 -0.000002 -0.124371 -2.384788 45.108885 4.500588 -4.654541 88.071171 1.723226 -3.618382 50.920109 -0.000001 -0.000000 0.000002 -0.761622 -2.932906 39.031055 5.133884 -4.632765 95.881642 1.739751 -3.631707 51.181387 0.000000 0.000000 0.000003 0.154760 -4.068815 39.122671 6.509734 -4.273599 113.462877 2.549586 -4.153927 63.067337 -0.000000 -0.000001 0.000001 -4.198880 -8.025515 44.637779 4.252924 -4.639637 85.014818 6.935961 -4.062622 119.322285 -0.000001 0.000000 0.000000 -34.339797 5.029971 20.531723 56.759196 -7.455338 3.506942 -20.133004 -7.265327 -17.275724 -1.594204 0.000015 -0.000002 -0.000000 0.000003 0.000000 -19.458820 -9.434820 -34.387571 57.467470 -3.364122 -5.068523 -26.895791 -10.146581 25.483531 -1.421719 -0.000014 0.000001 -0.000000 0.000000 -0.000000 
2.099472 72.867249 -1.826759 -4.919596 -42.728209 -0.115733 9.379870 7.500615 -1.427673 2.160459 1.014513 -0.917777 0.000000 0.000000 0.000000 2.175228 1.007280 -0.896828 -0.002264 13.274978 4.469520 8.607459 20.275410 -3.937009 -0.000001 -0.000000 -0.000001 1.001848 3.254859 -7.754998 0.000000 0.000000 0.000000 -53.008965 4.373917 -50.549287 0.000141 -106.685622 0.000161 2.320289 -7.487225 -15.637243 -6.141223 -11.690795 -6.761688 9.914119 42.595512 3.409854 -0.422797 8.108096 27.509121 0.000001 -0.000001 0.000002 0.255318 3.378221 -45.814351 5.654088 5.847757 -88.067455 2.162142 4.544811 -50.866362 0.000000 -0.000002 -0.000000 -0.461474 3.841598 -39.722690 6.450759 5.820349 -95.892871 2.182887 4.561564 -51.127743 -0.000000 -0.000001 -0.000005 0.469719 4.966833 -39.799444 8.181046 5.368619 -113.503018 3.200492 5.218119 -63.022989 -0.000001 0.000001 -0.000001 -3.762429 9.063686 -45.253821 5.342529 5.829003 -85.005311 8.716832 5.103330 -119.369167 0.000001 0.000002 0.000000 2.949114 12.677381 -5.252450 0.000000 0.000000 0.000000 -49.612694 28.281049 83.025860 -0.000032 105.788668 0.000019 -8.265623 17.517724 7.916560 -7.341100 13.749657 7.412326 9.855809 -44.489089 -3.903235 -0.115794 -14.513068 -28.973857 -0.000001 -0.000003 -0.000000 -0.124372 -2.384785 45.108885 4.500588 -4.654543 88.071171 1.723224 -3.618379 50.920112 0.000001 -0.000000 0.000001 -0.761623 -2.932904 39.031055 5.133886 -4.632764 95.881642 1.739751 -3.631706 51.181391 0.000002 0.000001 0.000001 0.154759 -4.068814 39.122671 6.509732 -4.273600 113.462877 2.549585 -4.153923 63.067337 0.000001 0.000000 0.000001 -4.198881 -8.025514 44.637776 4.252920 -4.639638 85.014818 6.935963 -4.062620 119.322285 -0.000001 -0.000000 -0.000000 -34.378623 5.045678 20.745993 56.719387 -7.533789 3.334279 -20.123001 -7.332300 -17.163103 -1.594204 0.000015 -0.000002 -0.000000 -0.000000 0.000000 -19.528595 -9.595841 -34.400364 57.349219 -3.171898 -4.959800 -26.865106 -10.092504 25.287508 -1.421719 -0.000014 0.000001 -0.000000 0.000000 0.000001 
2.096377 72.916046 -1.768019 -4.837986 -42.795131 -0.144532 9.344909 7.489957 -1.457797 2.140903 1.011705 -0.925597 0.000000 0.000000 0.000000 2.155735 1.004234 -0.904947 -0.072026 13.322214 4.429951 8.331904 20.440827 -3.819018 0.000000 0.000000 0.000001 0.942414 3.109343 -7.280549 0.000000 0.000000 0.000000 -52.751812 4.313186 -50.243411 0.000256 -107.038756 0.000258 2.688489 -7.265123 -15.676420 -6.141222 -11.690794 -6.761695 9.914117 42.595508 3.409850 -0.422804 8.108094 27.509125 0.000000 0.000001 0.000001 0.255321 3.378218 -45.814354 5.654088 5.847762 -88.067448 2.162142 4.544812 -50.866362 0.000000 0.000001 -0.000003 -0.461472 3.841596 -39.722693 6.450756 5.820349 -95.892871 2.182886 4.561564 -51.127743 -0.000000 0.000000 0.000003 0.469721 4.966831 -39.799447 8.181046 5.368618 -113.503018 3.200495 5.218119 -63.022989 -0.000000 0.000001 -0.000000 -3.762426 9.063683 -45.253825 5.342528 5.829003 -85.005304 8.716836 5.103330 -119.369167 0.000000 0.000001 0.000001 2.906331 12.509032 -5.180289 0.000000 0.000000 0.000000 -50.050646 28.941397 82.820811 0.000029 105.714253 -0.000023 -8.194002 17.536258 7.412599 -7.341103 13.749656 7.412320 9.855808 -44.489089 -3.903237 -0.115795 -14.513073 -28.973857 -0.000001 -0.000001 -0.000002 -0.124370 -2.384783 45.108881 4.500589 -4.654542 88.071178 1.723225 -3.618383 50.920105 0.000001 -0.000001 0.000000 -0.761622 -2.932902 39.031055 5.133884 -4.632764 95.881642 1.739748 -3.631705 51.181391 -0.000001 -0.000004 0.000000 0.154759 -4.068818 39.122664 6.509733 -4.273599 113.462877 2.549585 -4.153924 63.067337 -0.000002 -0.000000 0.000002 -4.198880 -8.025514 44.637776 4.252923 -4.639636 85.014818 6.935961 -4.062623 119.322285 -0.000002 -0.000000 -0.000000 -34.392875 5.130901 20.937269 56.667112 -7.708803 3.166521 -20.117988 -7.287667 -16.979591 -1.594204 0.000013 -0.000002 -0.000000 -0.000002 -0.000000 -19.556640 -9.660183 -34.410022 57.203551 -2.910977 -4.768530 -26.816149 -10.111440 25.030212 -1.421719 -0.000014 0.000001 -0.000000 -0.000000 0.000000 
